<?xml version="1.0" standalone="no"?>
<!DOCTYPE svg PUBLIC "-//W3C//DTD SVG 1.1//EN" "http://www.w3.org/Graphics/SVG/1.1/DTD/svg11.dtd">
<svg version="1.1" width="1200" height="470" onload="init(evt)" viewBox="0 0 1200 470" xmlns="http://www.w3.org/2000/svg" xmlns:xlink="http://www.w3.org/1999/xlink">
<!-- Flame graph stack visualization. See https://github.com/brendangregg/FlameGraph for latest version, and http://www.brendangregg.com/flamegraphs.html for examples. -->
<!-- NOTES:  -->
<defs>
	<linearGradient id="background" y1="0" y2="1" x1="0" x2="0" >
		<stop stop-color="#eeeeee" offset="5%" />
		<stop stop-color="#eeeeb0" offset="95%" />
	</linearGradient>
</defs>
<style type="text/css">
	text { font-family:Verdana; font-size:12px; fill:rgb(0,0,0); }
	#search, #ignorecase { opacity:0.1; cursor:pointer; }
	#search:hover, #search.show, #ignorecase:hover, #ignorecase.show { opacity:1; }
	#subtitle { text-anchor:middle; font-color:rgb(160,160,160); }
	#title { text-anchor:middle; font-size:17px}
	#unzoom { cursor:pointer; }
	#frames > *:hover { stroke:black; stroke-width:0.5; cursor:pointer; }
	.hide { display:none; }
	.parent { opacity:0.5; }
</style>
<script type="text/ecmascript">
<![CDATA[
	"use strict";
	var details, searchbtn, unzoombtn, matchedtxt, svg, searching, currentSearchTerm, ignorecase, ignorecaseBtn;
	function init(evt) {
		details = document.getElementById("details").firstChild;
		searchbtn = document.getElementById("search");
		ignorecaseBtn = document.getElementById("ignorecase");
		unzoombtn = document.getElementById("unzoom");
		matchedtxt = document.getElementById("matched");
		svg = document.getElementsByTagName("svg")[0];
		searching = 0;
		currentSearchTerm = null;
	}

	window.addEventListener("click", function(e) {
		var target = find_group(e.target);
		if (target) {
			if (target.nodeName == "a") {
				if (e.ctrlKey === false) return;
				e.preventDefault();
			}
			if (target.classList.contains("parent")) unzoom();
			zoom(target);
		}
		else if (e.target.id == "unzoom") unzoom();
		else if (e.target.id == "search") search_prompt();
		else if (e.target.id == "ignorecase") toggle_ignorecase();
	}, false)

	// mouse-over for info
	// show
	window.addEventListener("mouseover", function(e) {
		var target = find_group(e.target);
		if (target) details.nodeValue = "Function: " + g_to_text(target);
	}, false)

	// clear
	window.addEventListener("mouseout", function(e) {
		var target = find_group(e.target);
		if (target) details.nodeValue = ' ';
	}, false)

	// ctrl-F for search
	window.addEventListener("keydown",function (e) {
		if (e.keyCode === 114 || (e.ctrlKey && e.keyCode === 70)) {
			e.preventDefault();
			search_prompt();
		}
	}, false)

	// ctrl-I to toggle case-sensitive search
	window.addEventListener("keydown",function (e) {
		if (e.ctrlKey && e.keyCode === 73) {
			e.preventDefault();
			toggle_ignorecase();
		}
	}, false)

	// functions
	function find_child(node, selector) {
		var children = node.querySelectorAll(selector);
		if (children.length) return children[0];
		return;
	}
	function find_group(node) {
		var parent = node.parentElement;
		if (!parent) return;
		if (parent.id == "frames") return node;
		return find_group(parent);
	}
	function orig_save(e, attr, val) {
		if (e.attributes["_orig_" + attr] != undefined) return;
		if (e.attributes[attr] == undefined) return;
		if (val == undefined) val = e.attributes[attr].value;
		e.setAttribute("_orig_" + attr, val);
	}
	function orig_load(e, attr) {
		if (e.attributes["_orig_"+attr] == undefined) return;
		e.attributes[attr].value = e.attributes["_orig_" + attr].value;
		e.removeAttribute("_orig_"+attr);
	}
	function g_to_text(e) {
		var text = find_child(e, "title").firstChild.nodeValue;
		return (text)
	}
	function g_to_func(e) {
		var func = g_to_text(e);
		// if there's any manipulation we want to do to the function
		// name before it's searched, do it here before returning.
		return (func);
	}
	function update_text(e) {
		var r = find_child(e, "rect");
		var t = find_child(e, "text");
		var w = parseFloat(r.attributes.width.value) -3;
		var txt = find_child(e, "title").textContent.replace(/\([^(]*\)$/,"");
		t.attributes.x.value = parseFloat(r.attributes.x.value) + 3;

		// Smaller than this size won't fit anything
		if (w < 2 * 12 * 0.59) {
			t.textContent = "";
			return;
		}

		t.textContent = txt;
		// Fit in full text width
		if (/^ *$/.test(txt) || t.getSubStringLength(0, txt.length) < w)
			return;

		for (var x = txt.length - 2; x > 0; x--) {
			if (t.getSubStringLength(0, x + 2) <= w) {
				t.textContent = txt.substring(0, x) + "..";
				return;
			}
		}
		t.textContent = "";
	}

	// zoom
	function zoom_reset(e) {
		if (e.attributes != undefined) {
			orig_load(e, "x");
			orig_load(e, "width");
		}
		if (e.childNodes == undefined) return;
		for (var i = 0, c = e.childNodes; i < c.length; i++) {
			zoom_reset(c[i]);
		}
	}
	function zoom_child(e, x, ratio) {
		if (e.attributes != undefined) {
			if (e.attributes.x != undefined) {
				orig_save(e, "x");
				e.attributes.x.value = (parseFloat(e.attributes.x.value) - x - 10) * ratio + 10;
				if (e.tagName == "text")
					e.attributes.x.value = find_child(e.parentNode, "rect[x]").attributes.x.value + 3;
			}
			if (e.attributes.width != undefined) {
				orig_save(e, "width");
				e.attributes.width.value = parseFloat(e.attributes.width.value) * ratio;
			}
		}

		if (e.childNodes == undefined) return;
		for (var i = 0, c = e.childNodes; i < c.length; i++) {
			zoom_child(c[i], x - 10, ratio);
		}
	}
	function zoom_parent(e) {
		if (e.attributes) {
			if (e.attributes.x != undefined) {
				orig_save(e, "x");
				e.attributes.x.value = 10;
			}
			if (e.attributes.width != undefined) {
				orig_save(e, "width");
				e.attributes.width.value = parseInt(svg.width.baseVal.value) - (10 * 2);
			}
		}
		if (e.childNodes == undefined) return;
		for (var i = 0, c = e.childNodes; i < c.length; i++) {
			zoom_parent(c[i]);
		}
	}
	function zoom(node) {
		var attr = find_child(node, "rect").attributes;
		var width = parseFloat(attr.width.value);
		var xmin = parseFloat(attr.x.value);
		var xmax = parseFloat(xmin + width);
		var ymin = parseFloat(attr.y.value);
		var ratio = (svg.width.baseVal.value - 2 * 10) / width;

		// XXX: Workaround for JavaScript float issues (fix me)
		var fudge = 0.0001;

		unzoombtn.classList.remove("hide");

		var el = document.getElementById("frames").children;
		for (var i = 0; i < el.length; i++) {
			var e = el[i];
			var a = find_child(e, "rect").attributes;
			var ex = parseFloat(a.x.value);
			var ew = parseFloat(a.width.value);
			var upstack;
			// Is it an ancestor
			if (0 == 0) {
				upstack = parseFloat(a.y.value) > ymin;
			} else {
				upstack = parseFloat(a.y.value) < ymin;
			}
			if (upstack) {
				// Direct ancestor
				if (ex <= xmin && (ex+ew+fudge) >= xmax) {
					e.classList.add("parent");
					zoom_parent(e);
					update_text(e);
				}
				// not in current path
				else
					e.classList.add("hide");
			}
			// Children maybe
			else {
				// no common path
				if (ex < xmin || ex + fudge >= xmax) {
					e.classList.add("hide");
				}
				else {
					zoom_child(e, xmin, ratio);
					update_text(e);
				}
			}
		}
		search();
	}
	function unzoom() {
		unzoombtn.classList.add("hide");
		var el = document.getElementById("frames").children;
		for(var i = 0; i < el.length; i++) {
			el[i].classList.remove("parent");
			el[i].classList.remove("hide");
			zoom_reset(el[i]);
			update_text(el[i]);
		}
		search();
	}

	// search
	function toggle_ignorecase() {
		ignorecase = !ignorecase;
		if (ignorecase) {
			ignorecaseBtn.classList.add("show");
		} else {
			ignorecaseBtn.classList.remove("show");
		}
		reset_search();
		search();
	}
	function reset_search() {
		var el = document.querySelectorAll("#frames rect");
		for (var i = 0; i < el.length; i++) {
			orig_load(el[i], "fill")
		}
	}
	function search_prompt() {
		if (!searching) {
			var term = prompt("Enter a search term (regexp " +
			    "allowed, eg: ^ext4_)"
			    + (ignorecase ? ", ignoring case" : "")
			    + "\nPress Ctrl-i to toggle case sensitivity", "");
			if (term != null) {
				currentSearchTerm = term;
				search();
			}
		} else {
			reset_search();
			searching = 0;
			currentSearchTerm = null;
			searchbtn.classList.remove("show");
			searchbtn.firstChild.nodeValue = "Search"
			matchedtxt.classList.add("hide");
			matchedtxt.firstChild.nodeValue = ""
		}
	}
	function search(term) {
		if (currentSearchTerm === null) return;
		var term = currentSearchTerm;

		var re = new RegExp(term, ignorecase ? 'i' : '');
		var el = document.getElementById("frames").children;
		var matches = new Object();
		var maxwidth = 0;
		for (var i = 0; i < el.length; i++) {
			var e = el[i];
			var func = g_to_func(e);
			var rect = find_child(e, "rect");
			if (func == null || rect == null)
				continue;

			// Save max width. Only works as we have a root frame
			var w = parseFloat(rect.attributes.width.value);
			if (w > maxwidth)
				maxwidth = w;

			if (func.match(re)) {
				// highlight
				var x = parseFloat(rect.attributes.x.value);
				orig_save(rect, "fill");
				rect.attributes.fill.value = "rgb(230,0,230)";

				// remember matches
				if (matches[x] == undefined) {
					matches[x] = w;
				} else {
					if (w > matches[x]) {
						// overwrite with parent
						matches[x] = w;
					}
				}
				searching = 1;
			}
		}
		if (!searching)
			return;

		searchbtn.classList.add("show");
		searchbtn.firstChild.nodeValue = "Reset Search";

		// calculate percent matched, excluding vertical overlap
		var count = 0;
		var lastx = -1;
		var lastw = 0;
		var keys = Array();
		for (k in matches) {
			if (matches.hasOwnProperty(k))
				keys.push(k);
		}
		// sort the matched frames by their x location
		// ascending, then width descending
		keys.sort(function(a, b){
			return a - b;
		});
		// Step through frames saving only the biggest bottom-up frames
		// thanks to the sort order. This relies on the tree property
		// where children are always smaller than their parents.
		var fudge = 0.0001;	// JavaScript floating point
		for (var k in keys) {
			var x = parseFloat(keys[k]);
			var w = matches[keys[k]];
			if (x >= lastx + lastw - fudge) {
				count += w;
				lastx = x;
				lastw = w;
			}
		}
		// display matched percent
		matchedtxt.classList.remove("hide");
		var pct = 100 * count / maxwidth;
		if (pct != 100) pct = pct.toFixed(1)
		matchedtxt.firstChild.nodeValue = "Matched: " + pct + "%";
	}
]]>
</script>
<rect x="0.0" y="0" width="1200.0" height="470.0" fill="url(#background)"  />
<text id="title" x="600.00" y="24" >Flame Graph</text>
<text id="details" x="10.00" y="453" > </text>
<text id="unzoom" x="10.00" y="24" class="hide">Reset Zoom</text>
<text id="search" x="1090.00" y="24" >Search</text>
<text id="ignorecase" x="1174.00" y="24" >ic</text>
<text id="matched" x="1090.00" y="453" > </text>
<g id="frames">
<g >
<title>helper_lookup_tb_ptr (842 samples, 5.17%; +5.17%)</title><rect x="1114.7" y="373" width="61.0" height="15.0" fill="rgb(255,189,189)" rx="2" ry="2" />
<text  x="1117.69" y="383.5" >helper..</text>
</g>
<g >
<title>[unknown] (13 samples, 0.08%; 0.00%)</title><rect x="1179.4" y="357" width="1.0" height="15.0" fill="rgb(255,255,255)" rx="2" ry="2" />
<text  x="1182.42" y="367.5" ></text>
</g>
<g >
<title>mmput (2 samples, 0.01%; 0.00%)</title><rect x="1187.8" y="309" width="0.1" height="15.0" fill="rgb(255,255,255)" rx="2" ry="2" />
<text  x="1190.75" y="319.5" ></text>
</g>
<g >
<title>helper_lookup_tb_ptr (46 samples, 0.28%; +0.28%)</title><rect x="855.5" y="309" width="3.3" height="15.0" fill="rgb(255,208,208)" rx="2" ry="2" />
<text  x="858.50" y="319.5" ></text>
</g>
<g >
<title>[unknown] (3 samples, 0.02%; 0.00%)</title><rect x="1186.1" y="69" width="0.2" height="15.0" fill="rgb(255,255,255)" rx="2" ry="2" />
<text  x="1189.09" y="79.5" ></text>
</g>
<g >
<title>[perf-7234.map] (2 samples, 0.01%; +0.01%)</title><rect x="1183.6" y="53" width="0.2" height="15.0" fill="rgb(255,209,209)" rx="2" ry="2" />
<text  x="1186.62" y="63.5" ></text>
</g>
<g >
<title>entry_SYSCALL_64_after_hwframe (2 samples, 0.01%; 0.00%)</title><rect x="1187.8" y="389" width="0.1" height="15.0" fill="rgb(255,255,255)" rx="2" ry="2" />
<text  x="1190.75" y="399.5" ></text>
</g>
<g >
<title>__do_execve_file.isra.0 (6 samples, 0.04%; 0.00%)</title><rect x="10.0" y="325" width="0.4" height="15.0" fill="rgb(255,255,255)" rx="2" ry="2" />
<text  x="13.00" y="335.5" ></text>
</g>
<g >
<title>[unknown] (2 samples, 0.01%; 0.00%)</title><rect x="1183.6" y="101" width="0.2" height="15.0" fill="rgb(255,255,255)" rx="2" ry="2" />
<text  x="1186.62" y="111.5" ></text>
</g>
<g >
<title>helper_lookup_tb_ptr (2 samples, 0.01%; +0.01%)</title><rect x="1177.2" y="341" width="0.2" height="15.0" fill="rgb(255,209,209)" rx="2" ry="2" />
<text  x="1180.24" y="351.5" ></text>
</g>
<g >
<title>[unknown] (7 samples, 0.04%; 0.00%)</title><rect x="1185.9" y="85" width="0.5" height="15.0" fill="rgb(255,255,255)" rx="2" ry="2" />
<text  x="1188.87" y="95.5" ></text>
</g>
<g >
<title>[unknown] (186 samples, 1.14%; 0.00%)</title><rect x="842.0" y="309" width="13.5" height="15.0" fill="rgb(255,255,255)" rx="2" ry="2" />
<text  x="845.02" y="319.5" ></text>
</g>
<g >
<title>[unknown] (8 samples, 0.05%; 0.00%)</title><rect x="1178.5" y="341" width="0.6" height="15.0" fill="rgb(255,255,255)" rx="2" ry="2" />
<text  x="1181.48" y="351.5" ></text>
</g>
<g >
<title>[unknown] (6 samples, 0.04%; 0.00%)</title><rect x="10.0" y="389" width="0.4" height="15.0" fill="rgb(255,255,255)" rx="2" ry="2" />
<text  x="13.00" y="399.5" ></text>
</g>
<g >
<title>[qemu-x86_64] (5 samples, 0.03%; +0.03%)</title><rect x="867.7" y="325" width="0.3" height="15.0" fill="rgb(255,209,209)" rx="2" ry="2" />
<text  x="870.67" y="335.5" ></text>
</g>
<g >
<title>[unknown] (14,405 samples, 88.48%; 0.00%)</title><rect x="69.9" y="373" width="1044.1" height="15.0" fill="rgb(255,255,255)" rx="2" ry="2" />
<text  x="72.87" y="383.5" >[unknown]</text>
</g>
<g >
<title>[unknown] (2 samples, 0.01%; 0.00%)</title><rect x="1184.3" y="69" width="0.2" height="15.0" fill="rgb(255,255,255)" rx="2" ry="2" />
<text  x="1187.35" y="79.5" ></text>
</g>
<g >
<title>tcg_gen_code (5 samples, 0.03%; +0.03%)</title><rect x="868.1" y="325" width="0.4" height="15.0" fill="rgb(255,209,209)" rx="2" ry="2" />
<text  x="871.11" y="335.5" ></text>
</g>
<g >
<title>[unknown] (16,128 samples, 99.07%; 0.00%)</title><rect x="13.8" y="389" width="1169.0" height="15.0" fill="rgb(255,255,255)" rx="2" ry="2" />
<text  x="16.77" y="399.5" >[unknown]</text>
</g>
<g >
<title>helper_lookup_tb_ptr (25 samples, 0.15%; +0.15%)</title><rect x="848.7" y="261" width="1.8" height="15.0" fill="rgb(255,209,209)" rx="2" ry="2" />
<text  x="851.68" y="271.5" ></text>
</g>
<g >
<title>__x64_sys_execve (6 samples, 0.04%; 0.00%)</title><rect x="10.0" y="341" width="0.4" height="15.0" fill="rgb(255,255,255)" rx="2" ry="2" />
<text  x="13.00" y="351.5" ></text>
</g>
<g >
<title>[unknown] (2 samples, 0.01%; 0.00%)</title><rect x="1183.6" y="85" width="0.2" height="15.0" fill="rgb(255,255,255)" rx="2" ry="2" />
<text  x="1186.62" y="95.5" ></text>
</g>
<g >
<title>ret_from_fork (5 samples, 0.03%; 0.00%)</title><rect x="1114.0" y="357" width="0.4" height="15.0" fill="rgb(255,255,255)" rx="2" ry="2" />
<text  x="1117.04" y="367.5" ></text>
</g>
<g >
<title>std::vector&lt;int, std::allocator&lt;int&gt; &gt;::vector (12 samples, 0.07%; 0.00%)</title><rect x="1185.6" y="117" width="0.8" height="15.0" fill="rgb(255,255,255)" rx="2" ry="2" />
<text  x="1188.58" y="127.5" ></text>
</g>
<g >
<title>std::allocator&lt;int&gt;::~allocator (2 samples, 0.01%; 0.00%)</title><rect x="1188.0" y="389" width="0.2" height="15.0" fill="rgb(255,255,255)" rx="2" ry="2" />
<text  x="1191.04" y="399.5" ></text>
</g>
<g >
<title>[unknown] (6 samples, 0.04%; 0.00%)</title><rect x="1181.4" y="357" width="0.5" height="15.0" fill="rgb(255,255,255)" rx="2" ry="2" />
<text  x="1184.45" y="367.5" ></text>
</g>
<g >
<title>[perf-7234.map] (2 samples, 0.01%; +0.01%)</title><rect x="1183.3" y="69" width="0.1" height="15.0" fill="rgb(255,209,209)" rx="2" ry="2" />
<text  x="1186.26" y="79.5" ></text>
</g>
<g >
<title>[perf-7234.map] (2 samples, 0.01%; +0.01%)</title><rect x="1182.8" y="117" width="0.2" height="15.0" fill="rgb(255,209,209)" rx="2" ry="2" />
<text  x="1185.82" y="127.5" ></text>
</g>
<g >
<title>[unknown] (2 samples, 0.01%; 0.00%)</title><rect x="1187.5" y="165" width="0.1" height="15.0" fill="rgb(255,255,255)" rx="2" ry="2" />
<text  x="1190.46" y="175.5" ></text>
</g>
<g >
<title>main (68 samples, 0.42%; 0.00%)</title><rect x="1182.8" y="373" width="4.9" height="15.0" fill="rgb(255,255,255)" rx="2" ry="2" />
<text  x="1185.75" y="383.5" ></text>
</g>
<g >
<title>[unknown] (649 samples, 3.99%; 0.00%)</title><rect x="820.6" y="341" width="47.1" height="15.0" fill="rgb(255,255,255)" rx="2" ry="2" />
<text  x="823.63" y="351.5" >[unk..</text>
</g>
<g >
<title>mergesort (56 samples, 0.34%; 0.00%)</title><rect x="1183.0" y="149" width="4.1" height="15.0" fill="rgb(255,255,255)" rx="2" ry="2" />
<text  x="1186.04" y="159.5" ></text>
</g>
<g >
<title>std::num_put&lt;char, std::ostreambuf_iterator&lt;char, std::char_traits&lt;char&gt; &gt; &gt;::~num_put (6 samples, 0.04%; 0.00%)</title><rect x="1181.4" y="373" width="0.5" height="15.0" fill="rgb(255,255,255)" rx="2" ry="2" />
<text  x="1184.45" y="383.5" ></text>
</g>
<g >
<title>qht_lookup_custom (6 samples, 0.04%; +0.04%)</title><rect x="1177.4" y="373" width="0.4" height="15.0" fill="rgb(255,209,209)" rx="2" ry="2" />
<text  x="1180.39" y="383.5" ></text>
</g>
<g >
<title>[perf-7234.map] (27 samples, 0.17%; +0.17%)</title><rect x="842.0" y="293" width="2.0" height="15.0" fill="rgb(255,209,209)" rx="2" ry="2" />
<text  x="845.02" y="303.5" ></text>
</g>
<g >
<title>helper_lookup_tb_ptr (2,230 samples, 13.70%; +13.70%)</title><rect x="951.5" y="357" width="161.7" height="15.0" fill="rgb(255,156,156)" rx="2" ry="2" />
<text  x="954.54" y="367.5" >helper_lookup_tb_ptr</text>
</g>
<g >
<title>helper_lookup_tb_ptr (1,120 samples, 6.88%; +6.88%)</title><rect x="868.7" y="341" width="81.2" height="15.0" fill="rgb(255,183,183)" rx="2" ry="2" />
<text  x="871.69" y="351.5" >helper_lo..</text>
</g>
<g >
<title>[unknown] (2 samples, 0.01%; 0.00%)</title><rect x="1188.0" y="373" width="0.2" height="15.0" fill="rgb(255,255,255)" rx="2" ry="2" />
<text  x="1191.04" y="383.5" ></text>
</g>
<g >
<title>[unknown] (117 samples, 0.72%; 0.00%)</title><rect x="844.0" y="293" width="8.5" height="15.0" fill="rgb(255,255,255)" rx="2" ry="2" />
<text  x="846.97" y="303.5" ></text>
</g>
<g >
<title>[perf-7234.map] (757 samples, 4.65%; +4.64%)</title><rect x="13.8" y="373" width="54.8" height="15.0" fill="rgb(255,191,191)" rx="2" ry="2" />
<text  x="16.77" y="383.5" >[perf..</text>
</g>
<g >
<title>[perf-7234.map] (33 samples, 0.20%; +0.20%)</title><rect x="839.6" y="309" width="2.4" height="15.0" fill="rgb(255,209,209)" rx="2" ry="2" />
<text  x="842.62" y="319.5" ></text>
</g>
<g >
<title>entry_SYSCALL_64_after_hwframe (6 samples, 0.04%; 0.00%)</title><rect x="10.0" y="373" width="0.4" height="15.0" fill="rgb(255,255,255)" rx="2" ry="2" />
<text  x="13.00" y="383.5" ></text>
</g>
<g >
<title>[perf-7234.map] (7 samples, 0.04%; +0.04%)</title><rect x="1176.0" y="325" width="0.5" height="15.0" fill="rgb(255,209,209)" rx="2" ry="2" />
<text  x="1179.01" y="335.5" ></text>
</g>
<g >
<title>mergesort (68 samples, 0.42%; 0.00%)</title><rect x="1182.8" y="357" width="4.9" height="15.0" fill="rgb(255,255,255)" rx="2" ry="2" />
<text  x="1185.75" y="367.5" ></text>
</g>
<g >
<title>memcpy (5 samples, 0.03%; +0.03%)</title><rect x="10.0" y="245" width="0.4" height="15.0" fill="rgb(255,209,209)" rx="2" ry="2" />
<text  x="13.00" y="255.5" ></text>
</g>
<g >
<title>helper_cc_compute_all (22 samples, 0.14%; +0.14%)</title><rect x="949.9" y="357" width="1.6" height="15.0" fill="rgb(255,209,209)" rx="2" ry="2" />
<text  x="952.94" y="367.5" ></text>
</g>
<g >
<title>helper_lookup_tb_ptr (13 samples, 0.08%; +0.08%)</title><rect x="847.7" y="245" width="1.0" height="15.0" fill="rgb(255,209,209)" rx="2" ry="2" />
<text  x="850.74" y="255.5" ></text>
</g>
<g >
<title>setup_new_exec (6 samples, 0.04%; 0.00%)</title><rect x="10.0" y="277" width="0.4" height="15.0" fill="rgb(255,255,255)" rx="2" ry="2" />
<text  x="13.00" y="287.5" ></text>
</g>
<g >
<title>[unknown] (6 samples, 0.04%; 0.00%)</title><rect x="1184.5" y="69" width="0.4" height="15.0" fill="rgb(255,255,255)" rx="2" ry="2" />
<text  x="1187.49" y="79.5" ></text>
</g>
<g >
<title>qemu-x86_64 (16,274 samples, 99.96%; +0.14%)</title><rect x="10.4" y="405" width="1179.6" height="15.0" fill="rgb(255,209,209)" rx="2" ry="2" />
<text  x="13.43" y="415.5" >qemu-x86_64</text>
</g>
<g >
<title>[unknown] (2 samples, 0.01%; 0.00%)</title><rect x="1186.7" y="85" width="0.2" height="15.0" fill="rgb(255,255,255)" rx="2" ry="2" />
<text  x="1189.74" y="95.5" ></text>
</g>
<g >
<title>[unknown] (8 samples, 0.05%; 0.00%)</title><rect x="1185.0" y="85" width="0.6" height="15.0" fill="rgb(255,255,255)" rx="2" ry="2" />
<text  x="1188.00" y="95.5" ></text>
</g>
<g >
<title>[perf-7234.map] (2 samples, 0.01%; +0.01%)</title><rect x="1188.0" y="357" width="0.2" height="15.0" fill="rgb(255,209,209)" rx="2" ry="2" />
<text  x="1191.04" y="367.5" ></text>
</g>
<g >
<title>__set_task_comm (6 samples, 0.04%; 0.00%)</title><rect x="10.0" y="261" width="0.4" height="15.0" fill="rgb(255,255,255)" rx="2" ry="2" />
<text  x="13.00" y="271.5" ></text>
</g>
<g >
<title>helper_lookup_tb_ptr (10 samples, 0.06%; +0.06%)</title><rect x="1176.5" y="325" width="0.7" height="15.0" fill="rgb(255,209,209)" rx="2" ry="2" />
<text  x="1179.52" y="335.5" ></text>
</g>
<g >
<title>mergesort (68 samples, 0.42%; 0.00%)</title><rect x="1182.8" y="309" width="4.9" height="15.0" fill="rgb(255,255,255)" rx="2" ry="2" />
<text  x="1185.75" y="319.5" ></text>
</g>
<g >
<title>[perf-7234.map] (2 samples, 0.01%; +0.01%)</title><rect x="1179.8" y="325" width="0.1" height="15.0" fill="rgb(255,209,209)" rx="2" ry="2" />
<text  x="1182.78" y="335.5" ></text>
</g>
<g >
<title>helper_lookup_tb_ptr (27 samples, 0.17%; +0.17%)</title><rect x="850.5" y="277" width="2.0" height="15.0" fill="rgb(255,209,209)" rx="2" ry="2" />
<text  x="853.50" y="287.5" ></text>
</g>
<g >
<title>[unknown] (70 samples, 0.43%; 0.00%)</title><rect x="845.4" y="277" width="5.1" height="15.0" fill="rgb(255,255,255)" rx="2" ry="2" />
<text  x="848.42" y="287.5" ></text>
</g>
<g >
<title>[perf-7234.map] (4 samples, 0.02%; +0.02%)</title><rect x="1178.2" y="341" width="0.3" height="15.0" fill="rgb(255,209,209)" rx="2" ry="2" />
<text  x="1181.19" y="351.5" ></text>
</g>
<g >
<title>[qemu-x86_64] (24 samples, 0.15%; +0.14%)</title><rect x="12.0" y="389" width="1.8" height="15.0" fill="rgb(255,209,209)" rx="2" ry="2" />
<text  x="15.03" y="399.5" ></text>
</g>
<g >
<title>[perf-7234.map] (4 samples, 0.02%; +0.02%)</title><rect x="1175.7" y="341" width="0.3" height="15.0" fill="rgb(255,209,209)" rx="2" ry="2" />
<text  x="1178.72" y="351.5" ></text>
</g>
<g >
<title>mergesort (68 samples, 0.42%; 0.00%)</title><rect x="1182.8" y="229" width="4.9" height="15.0" fill="rgb(255,255,255)" rx="2" ry="2" />
<text  x="1185.75" y="239.5" ></text>
</g>
<g >
<title>std::basic_filebuf&lt;char, std::char_traits&lt;char&gt; &gt;::~basic_filebuf (17 samples, 0.10%; 0.00%)</title><rect x="1178.2" y="373" width="1.2" height="15.0" fill="rgb(255,255,255)" rx="2" ry="2" />
<text  x="1181.19" y="383.5" ></text>
</g>
<g >
<title>[unknown] (2 samples, 0.01%; 0.00%)</title><rect x="1185.3" y="53" width="0.1" height="15.0" fill="rgb(255,255,255)" rx="2" ry="2" />
<text  x="1188.29" y="63.5" ></text>
</g>
<g >
<title>[perf-7234.map] (5 samples, 0.03%; +0.03%)</title><rect x="1183.8" y="69" width="0.3" height="15.0" fill="rgb(255,209,209)" rx="2" ry="2" />
<text  x="1186.77" y="79.5" ></text>
</g>
<g >
<title>[unknown] (6 samples, 0.04%; 0.00%)</title><rect x="1183.2" y="101" width="0.4" height="15.0" fill="rgb(255,255,255)" rx="2" ry="2" />
<text  x="1186.19" y="111.5" ></text>
</g>
<g >
<title>[perf-7234.map] (20 samples, 0.12%; +0.12%)</title><rect x="845.4" y="261" width="1.5" height="15.0" fill="rgb(255,209,209)" rx="2" ry="2" />
<text  x="848.42" y="271.5" ></text>
</g>
<g >
<title>mergesort (67 samples, 0.41%; 0.00%)</title><rect x="1182.8" y="213" width="4.8" height="15.0" fill="rgb(255,255,255)" rx="2" ry="2" />
<text  x="1185.75" y="223.5" ></text>
</g>
<g >
<title>__clone (6 samples, 0.04%; +0.01%)</title><rect x="1114.0" y="373" width="0.4" height="15.0" fill="rgb(255,209,209)" rx="2" ry="2" />
<text  x="1116.97" y="383.5" ></text>
</g>
<g >
<title>mergesort (9 samples, 0.06%; 0.00%)</title><rect x="1184.3" y="101" width="0.7" height="15.0" fill="rgb(255,255,255)" rx="2" ry="2" />
<text  x="1187.35" y="111.5" ></text>
</g>
<g >
<title>[unknown] (23 samples, 0.14%; 0.00%)</title><rect x="1175.7" y="357" width="1.7" height="15.0" fill="rgb(255,255,255)" rx="2" ry="2" />
<text  x="1178.72" y="367.5" ></text>
</g>
<g >
<title>perf (6 samples, 0.04%; 0.00%)</title><rect x="10.0" y="405" width="0.4" height="15.0" fill="rgb(255,255,255)" rx="2" ry="2" />
<text  x="13.00" y="415.5" ></text>
</g>
<g >
<title>std::__numpunct_cache&lt;char&gt;::~__numpunct_cache (4 samples, 0.02%; 0.00%)</title><rect x="1177.9" y="373" width="0.3" height="15.0" fill="rgb(255,255,255)" rx="2" ry="2" />
<text  x="1180.90" y="383.5" ></text>
</g>
<g >
<title>tcg_temp_new_internal (2 samples, 0.01%; +0.01%)</title><rect x="1189.9" y="389" width="0.1" height="15.0" fill="rgb(255,209,209)" rx="2" ry="2" />
<text  x="1192.86" y="399.5" ></text>
</g>
<g >
<title>[unknown] (17 samples, 0.10%; 0.00%)</title><rect x="1176.0" y="341" width="1.2" height="15.0" fill="rgb(255,255,255)" rx="2" ry="2" />
<text  x="1179.01" y="351.5" ></text>
</g>
<g >
<title>[unknown] (6 samples, 0.04%; 0.00%)</title><rect x="1179.8" y="341" width="0.4" height="15.0" fill="rgb(255,255,255)" rx="2" ry="2" />
<text  x="1182.78" y="351.5" ></text>
</g>
<g >
<title>tb_htable_lookup (11 samples, 0.07%; +0.07%)</title><rect x="1181.9" y="373" width="0.8" height="15.0" fill="rgb(255,209,209)" rx="2" ry="2" />
<text  x="1184.88" y="383.5" ></text>
</g>
<g >
<title>helper_lookup_tb_ptr (3 samples, 0.02%; +0.02%)</title><rect x="1183.4" y="85" width="0.2" height="15.0" fill="rgb(255,209,209)" rx="2" ry="2" />
<text  x="1186.40" y="95.5" ></text>
</g>
<g >
<title>[unknown] (5 samples, 0.03%; 0.00%)</title><rect x="1180.4" y="357" width="0.3" height="15.0" fill="rgb(255,255,255)" rx="2" ry="2" />
<text  x="1183.36" y="367.5" ></text>
</g>
<g >
<title>mergesort (68 samples, 0.42%; 0.00%)</title><rect x="1182.8" y="341" width="4.9" height="15.0" fill="rgb(255,255,255)" rx="2" ry="2" />
<text  x="1185.75" y="351.5" ></text>
</g>
<g >
<title>helper_lookup_tb_ptr (122 samples, 0.75%; +0.75%)</title><rect x="858.8" y="325" width="8.9" height="15.0" fill="rgb(255,207,207)" rx="2" ry="2" />
<text  x="861.83" y="335.5" ></text>
</g>
<g >
<title>[perf-7234.map] (3 samples, 0.02%; +0.02%)</title><rect x="1180.7" y="341" width="0.2" height="15.0" fill="rgb(255,209,209)" rx="2" ry="2" />
<text  x="1183.72" y="351.5" ></text>
</g>
<g >
<title>[perf-7234.map] (262 samples, 1.61%; +1.61%)</title><rect x="820.6" y="325" width="19.0" height="15.0" fill="rgb(255,203,203)" rx="2" ry="2" />
<text  x="823.63" y="335.5" ></text>
</g>
<g >
<title>[perf-7234.map] (3 samples, 0.02%; +0.02%)</title><rect x="1186.5" y="85" width="0.2" height="15.0" fill="rgb(255,209,209)" rx="2" ry="2" />
<text  x="1189.52" y="95.5" ></text>
</g>
<g >
<title>[unknown] (4 samples, 0.02%; 0.00%)</title><rect x="1187.1" y="133" width="0.3" height="15.0" fill="rgb(255,255,255)" rx="2" ry="2" />
<text  x="1190.10" y="143.5" ></text>
</g>
<g >
<title>[unknown] (9 samples, 0.06%; 0.00%)</title><rect x="1186.4" y="117" width="0.7" height="15.0" fill="rgb(255,255,255)" rx="2" ry="2" />
<text  x="1189.45" y="127.5" ></text>
</g>
<g >
<title>[qemu-x86_64] (2 samples, 0.01%; +0.01%)</title><rect x="703.2" y="357" width="0.2" height="15.0" fill="rgb(255,209,209)" rx="2" ry="2" />
<text  x="706.21" y="367.5" ></text>
</g>
<g >
<title>[unknown] (2 samples, 0.01%; 0.00%)</title><rect x="1182.8" y="149" width="0.2" height="15.0" fill="rgb(255,255,255)" rx="2" ry="2" />
<text  x="1185.82" y="159.5" ></text>
</g>
<g >
<title>[perf-7234.map] (3 samples, 0.02%; +0.02%)</title><rect x="1178.5" y="325" width="0.2" height="15.0" fill="rgb(255,209,209)" rx="2" ry="2" />
<text  x="1181.48" y="335.5" ></text>
</g>
<g >
<title>[unknown] (4 samples, 0.02%; 0.00%)</title><rect x="1177.9" y="341" width="0.3" height="15.0" fill="rgb(255,255,255)" rx="2" ry="2" />
<text  x="1180.90" y="351.5" ></text>
</g>
<g >
<title>__x64_sys_exit_group (2 samples, 0.01%; 0.00%)</title><rect x="1187.8" y="357" width="0.1" height="15.0" fill="rgb(255,255,255)" rx="2" ry="2" />
<text  x="1190.75" y="367.5" ></text>
</g>
<g >
<title>helper_lookup_tb_ptr (5 samples, 0.03%; +0.03%)</title><rect x="1180.4" y="341" width="0.3" height="15.0" fill="rgb(255,209,209)" rx="2" ry="2" />
<text  x="1183.36" y="351.5" ></text>
</g>
<g >
<title>[perf-7234.map] (8,738 samples, 53.67%; +53.67%)</title><rect x="69.9" y="357" width="633.3" height="15.0" fill="rgb(255,0,0)" rx="2" ry="2" />
<text  x="72.87" y="367.5" >[perf-7234.map]</text>
</g>
<g >
<title>do_syscall_64 (6 samples, 0.04%; 0.00%)</title><rect x="10.0" y="357" width="0.4" height="15.0" fill="rgb(255,255,255)" rx="2" ry="2" />
<text  x="13.00" y="367.5" ></text>
</g>
<g >
<title>[perf-7234.map] (2 samples, 0.01%; +0.01%)</title><rect x="1185.1" y="53" width="0.2" height="15.0" fill="rgb(255,209,209)" rx="2" ry="2" />
<text  x="1188.14" y="63.5" ></text>
</g>
<g >
<title>[perf-7234.map] (2 samples, 0.01%; +0.01%)</title><rect x="1186.1" y="53" width="0.1" height="15.0" fill="rgb(255,209,209)" rx="2" ry="2" />
<text  x="1189.09" y="63.5" ></text>
</g>
<g >
<title>tcg_optimize (13 samples, 0.08%; +0.08%)</title><rect x="1188.9" y="389" width="1.0" height="15.0" fill="rgb(255,209,209)" rx="2" ry="2" />
<text  x="1191.91" y="399.5" ></text>
</g>
<g >
<title>std::vector&lt;int, std::allocator&lt;int&gt; &gt;::vector (8 samples, 0.05%; 0.00%)</title><rect x="1185.0" y="101" width="0.6" height="15.0" fill="rgb(255,255,255)" rx="2" ry="2" />
<text  x="1188.00" y="111.5" ></text>
</g>
<g >
<title>std::num_get&lt;char, std::istreambuf_iterator&lt;char, std::char_traits&lt;char&gt; &gt; &gt;::~num_get (10 samples, 0.06%; 0.00%)</title><rect x="1180.7" y="373" width="0.7" height="15.0" fill="rgb(255,255,255)" rx="2" ry="2" />
<text  x="1183.72" y="383.5" ></text>
</g>
<g >
<title>[unknown] (2 samples, 0.01%; 0.00%)</title><rect x="1183.6" y="69" width="0.2" height="15.0" fill="rgb(255,255,255)" rx="2" ry="2" />
<text  x="1186.62" y="79.5" ></text>
</g>
<g >
<title>[unknown] (2 samples, 0.01%; 0.00%)</title><rect x="1182.8" y="133" width="0.2" height="15.0" fill="rgb(255,255,255)" rx="2" ry="2" />
<text  x="1185.82" y="143.5" ></text>
</g>
<g >
<title>do_exit (2 samples, 0.01%; 0.00%)</title><rect x="1187.8" y="325" width="0.1" height="15.0" fill="rgb(255,255,255)" rx="2" ry="2" />
<text  x="1190.75" y="335.5" ></text>
</g>
<g >
<title>mergesort (64 samples, 0.39%; 0.00%)</title><rect x="1182.8" y="181" width="4.7" height="15.0" fill="rgb(255,255,255)" rx="2" ry="2" />
<text  x="1185.82" y="191.5" ></text>
</g>
<g >
<title>std::vector&lt;int, std::allocator&lt;int&gt; &gt;::vector (9 samples, 0.06%; 0.00%)</title><rect x="1186.4" y="133" width="0.7" height="15.0" fill="rgb(255,255,255)" rx="2" ry="2" />
<text  x="1189.45" y="143.5" ></text>
</g>
<g >
<title>helper_lookup_tb_ptr (2 samples, 0.01%; +0.01%)</title><rect x="1186.9" y="85" width="0.1" height="15.0" fill="rgb(255,209,209)" rx="2" ry="2" />
<text  x="1189.88" y="95.5" ></text>
</g>
<g >
<title>[unknown] (7 samples, 0.04%; 0.00%)</title><rect x="1186.5" y="101" width="0.5" height="15.0" fill="rgb(255,255,255)" rx="2" ry="2" />
<text  x="1189.52" y="111.5" ></text>
</g>
<g >
<title>[unknown] (12 samples, 0.07%; 0.00%)</title><rect x="1185.6" y="101" width="0.8" height="15.0" fill="rgb(255,255,255)" rx="2" ry="2" />
<text  x="1188.58" y="111.5" ></text>
</g>
<g >
<title>helper_lookup_tb_ptr (3 samples, 0.02%; +0.02%)</title><rect x="1178.0" y="325" width="0.2" height="15.0" fill="rgb(255,209,209)" rx="2" ry="2" />
<text  x="1180.97" y="335.5" ></text>
</g>
<g >
<title>helper_lookup_tb_ptr (4 samples, 0.02%; +0.02%)</title><rect x="1178.8" y="325" width="0.3" height="15.0" fill="rgb(255,209,209)" rx="2" ry="2" />
<text  x="1181.77" y="335.5" ></text>
</g>
<g >
<title>helper_lookup_tb_ptr (2 samples, 0.01%; +0.01%)</title><rect x="1185.4" y="53" width="0.2" height="15.0" fill="rgb(255,209,209)" rx="2" ry="2" />
<text  x="1188.43" y="63.5" ></text>
</g>
<g >
<title>helper_lookup_tb_ptr (42 samples, 0.26%; +0.26%)</title><rect x="852.5" y="293" width="3.0" height="15.0" fill="rgb(255,208,208)" rx="2" ry="2" />
<text  x="855.45" y="303.5" ></text>
</g>
<g >
<title>[perf-7234.map] (11 samples, 0.07%; +0.07%)</title><rect x="846.9" y="245" width="0.8" height="15.0" fill="rgb(255,209,209)" rx="2" ry="2" />
<text  x="849.87" y="255.5" ></text>
</g>
<g >
<title>merge (2 samples, 0.01%; 0.00%)</title><rect x="1182.8" y="165" width="0.2" height="15.0" fill="rgb(255,255,255)" rx="2" ry="2" />
<text  x="1185.82" y="175.5" ></text>
</g>
<g >
<title>helper_lookup_tb_ptr (4 samples, 0.02%; +0.02%)</title><rect x="1179.9" y="325" width="0.3" height="15.0" fill="rgb(255,209,209)" rx="2" ry="2" />
<text  x="1182.93" y="335.5" ></text>
</g>
<g >
<title>do_group_exit (2 samples, 0.01%; 0.00%)</title><rect x="1187.8" y="341" width="0.1" height="15.0" fill="rgb(255,255,255)" rx="2" ry="2" />
<text  x="1190.75" y="351.5" ></text>
</g>
<g >
<title>helper_lookup_tb_ptr (7 samples, 0.04%; +0.04%)</title><rect x="1180.9" y="341" width="0.5" height="15.0" fill="rgb(255,209,209)" rx="2" ry="2" />
<text  x="1183.94" y="351.5" ></text>
</g>
<g >
<title>helper_lookup_tb_ptr (2 samples, 0.01%; +0.01%)</title><rect x="1180.2" y="341" width="0.2" height="15.0" fill="rgb(255,209,209)" rx="2" ry="2" />
<text  x="1183.21" y="351.5" ></text>
</g>
<g >
<title>[unknown] (2 samples, 0.01%; 0.00%)</title><rect x="1183.3" y="85" width="0.1" height="15.0" fill="rgb(255,255,255)" rx="2" ry="2" />
<text  x="1186.26" y="95.5" ></text>
</g>
<g >
<title>search_binary_handler (6 samples, 0.04%; 0.00%)</title><rect x="10.0" y="309" width="0.4" height="15.0" fill="rgb(255,255,255)" rx="2" ry="2" />
<text  x="13.00" y="319.5" ></text>
</g>
<g >
<title>std::vector&lt;int, std::allocator&lt;int&gt; &gt;::vector (2 samples, 0.01%; 0.00%)</title><rect x="1187.5" y="181" width="0.1" height="15.0" fill="rgb(255,255,255)" rx="2" ry="2" />
<text  x="1190.46" y="191.5" ></text>
</g>
<g >
<title>[unknown] (2 samples, 0.01%; 0.00%)</title><rect x="1184.3" y="85" width="0.2" height="15.0" fill="rgb(255,255,255)" rx="2" ry="2" />
<text  x="1187.35" y="95.5" ></text>
</g>
<g >
<title>[qemu-x86_64] (17 samples, 0.10%; +0.10%)</title><rect x="68.6" y="373" width="1.3" height="15.0" fill="rgb(255,209,209)" rx="2" ry="2" />
<text  x="71.64" y="383.5" ></text>
</g>
<g >
<title>[unknown] (4 samples, 0.02%; 0.00%)</title><rect x="1177.9" y="357" width="0.3" height="15.0" fill="rgb(255,255,255)" rx="2" ry="2" />
<text  x="1180.90" y="367.5" ></text>
</g>
<g >
<title>mergesort (46 samples, 0.28%; 0.00%)</title><rect x="1183.1" y="133" width="3.3" height="15.0" fill="rgb(255,255,255)" rx="2" ry="2" />
<text  x="1186.11" y="143.5" ></text>
</g>
<g >
<title>g_free (13 samples, 0.08%; 0.00%)</title><rect x="867.7" y="341" width="0.9" height="15.0" fill="rgb(255,255,255)" rx="2" ry="2" />
<text  x="870.67" y="351.5" ></text>
</g>
<g >
<title>merge (6 samples, 0.04%; 0.00%)</title><rect x="1183.2" y="117" width="0.4" height="15.0" fill="rgb(255,255,255)" rx="2" ry="2" />
<text  x="1186.19" y="127.5" ></text>
</g>
<g >
<title>load_elf_binary (6 samples, 0.04%; 0.00%)</title><rect x="10.0" y="293" width="0.4" height="15.0" fill="rgb(255,255,255)" rx="2" ry="2" />
<text  x="13.00" y="303.5" ></text>
</g>
<g >
<title>[unknown] (7 samples, 0.04%; 0.00%)</title><rect x="1183.8" y="85" width="0.5" height="15.0" fill="rgb(255,255,255)" rx="2" ry="2" />
<text  x="1186.77" y="95.5" ></text>
</g>
<g >
<title>mergesort (67 samples, 0.41%; 0.00%)</title><rect x="1182.8" y="197" width="4.8" height="15.0" fill="rgb(255,255,255)" rx="2" ry="2" />
<text  x="1185.75" y="207.5" ></text>
</g>
<g >
<title>mergesort (68 samples, 0.42%; 0.00%)</title><rect x="1182.8" y="293" width="4.9" height="15.0" fill="rgb(255,255,255)" rx="2" ry="2" />
<text  x="1185.75" y="303.5" ></text>
</g>
<g >
<title>helper_lookup_tb_ptr (6 samples, 0.04%; +0.04%)</title><rect x="1181.4" y="341" width="0.5" height="15.0" fill="rgb(255,209,209)" rx="2" ry="2" />
<text  x="1184.45" y="351.5" ></text>
</g>
<g >
<title>mergesort (68 samples, 0.42%; 0.00%)</title><rect x="1182.8" y="261" width="4.9" height="15.0" fill="rgb(255,255,255)" rx="2" ry="2" />
<text  x="1185.75" y="271.5" ></text>
</g>
<g >
<title>[unknown] (3,402 samples, 20.90%; 0.00%)</title><rect x="703.4" y="357" width="246.5" height="15.0" fill="rgb(255,255,255)" rx="2" ry="2" />
<text  x="706.36" y="367.5" >[unknown]</text>
</g>
<g >
<title>[perf-7234.map] (20 samples, 0.12%; +0.12%)</title><rect x="844.0" y="277" width="1.4" height="15.0" fill="rgb(255,209,209)" rx="2" ry="2" />
<text  x="846.97" y="287.5" ></text>
</g>
<g >
<title>[perf-7234.map] (2 samples, 0.01%; +0.01%)</title><rect x="1185.0" y="69" width="0.1" height="15.0" fill="rgb(255,209,209)" rx="2" ry="2" />
<text  x="1188.00" y="79.5" ></text>
</g>
<g >
<title>helper_pcmpeqb_xmm (3 samples, 0.02%; +0.02%)</title><rect x="1113.2" y="357" width="0.2" height="15.0" fill="rgb(255,209,209)" rx="2" ry="2" />
<text  x="1116.17" y="367.5" ></text>
</g>
<g >
<title>[unknown] (25 samples, 0.15%; 0.00%)</title><rect x="846.9" y="261" width="1.8" height="15.0" fill="rgb(255,255,255)" rx="2" ry="2" />
<text  x="849.87" y="271.5" ></text>
</g>
<g >
<title>merge (6 samples, 0.04%; 0.00%)</title><rect x="1184.5" y="85" width="0.4" height="15.0" fill="rgb(255,255,255)" rx="2" ry="2" />
<text  x="1187.49" y="95.5" ></text>
</g>
<g >
<title>mergesort (61 samples, 0.37%; 0.00%)</title><rect x="1183.0" y="165" width="4.4" height="15.0" fill="rgb(255,255,255)" rx="2" ry="2" />
<text  x="1185.97" y="175.5" ></text>
</g>
<g >
<title>[perf-7234.map] (3 samples, 0.02%; +0.02%)</title><rect x="1185.9" y="69" width="0.2" height="15.0" fill="rgb(255,209,209)" rx="2" ry="2" />
<text  x="1188.87" y="79.5" ></text>
</g>
<g >
<title>std::codecvt&lt;char, char, __mbstate_t&gt;::~codecvt (5 samples, 0.03%; 0.00%)</title><rect x="1180.4" y="373" width="0.3" height="15.0" fill="rgb(255,255,255)" rx="2" ry="2" />
<text  x="1183.36" y="383.5" ></text>
</g>
<g >
<title>finish_task_switch (5 samples, 0.03%; +0.03%)</title><rect x="1114.0" y="341" width="0.4" height="15.0" fill="rgb(255,209,209)" rx="2" ry="2" />
<text  x="1117.04" y="351.5" ></text>
</g>
<g >
<title>[unknown] (17 samples, 0.10%; 0.00%)</title><rect x="1178.2" y="357" width="1.2" height="15.0" fill="rgb(255,255,255)" rx="2" ry="2" />
<text  x="1181.19" y="367.5" ></text>
</g>
<g >
<title>exit_mmap (2 samples, 0.01%; 0.00%)</title><rect x="1187.8" y="293" width="0.1" height="15.0" fill="rgb(255,255,255)" rx="2" ry="2" />
<text  x="1190.75" y="303.5" ></text>
</g>
<g >
<title>tcg_gen_code (7 samples, 0.04%; +0.04%)</title><rect x="1188.2" y="389" width="0.5" height="15.0" fill="rgb(255,209,209)" rx="2" ry="2" />
<text  x="1191.19" y="399.5" ></text>
</g>
<g >
<title>std::basic_fstream&lt;char, std::char_traits&lt;char&gt; &gt;::~basic_fstream (13 samples, 0.08%; 0.00%)</title><rect x="1179.4" y="373" width="1.0" height="15.0" fill="rgb(255,255,255)" rx="2" ry="2" />
<text  x="1182.42" y="383.5" ></text>
</g>
<g >
<title>do_syscall_64 (2 samples, 0.01%; 0.00%)</title><rect x="1187.8" y="373" width="0.1" height="15.0" fill="rgb(255,255,255)" rx="2" ry="2" />
<text  x="1190.75" y="383.5" ></text>
</g>
<g >
<title>mergesort (27 samples, 0.17%; 0.00%)</title><rect x="1183.6" y="117" width="2.0" height="15.0" fill="rgb(255,255,255)" rx="2" ry="2" />
<text  x="1186.62" y="127.5" ></text>
</g>
<g >
<title>[unknown] (265 samples, 1.63%; 0.00%)</title><rect x="839.6" y="325" width="19.2" height="15.0" fill="rgb(255,255,255)" rx="2" ry="2" />
<text  x="842.62" y="335.5" ></text>
</g>
<g >
<title>tb_htable_lookup (7 samples, 0.04%; +0.04%)</title><rect x="1113.5" y="357" width="0.5" height="15.0" fill="rgb(255,209,209)" rx="2" ry="2" />
<text  x="1116.46" y="367.5" ></text>
</g>
<g >
<title>std::vector&lt;int, std::allocator&lt;int&gt; &gt;::vector (4 samples, 0.02%; 0.00%)</title><rect x="1187.1" y="149" width="0.3" height="15.0" fill="rgb(255,255,255)" rx="2" ry="2" />
<text  x="1190.10" y="159.5" ></text>
</g>
<g >
<title>mergesort (68 samples, 0.42%; 0.00%)</title><rect x="1182.8" y="245" width="4.9" height="15.0" fill="rgb(255,255,255)" rx="2" ry="2" />
<text  x="1185.75" y="255.5" ></text>
</g>
<g >
<title>[perf-7234.map] (5 samples, 0.03%; +0.03%)</title><rect x="1179.4" y="341" width="0.4" height="15.0" fill="rgb(255,209,209)" rx="2" ry="2" />
<text  x="1182.42" y="351.5" ></text>
</g>
<g >
<title>mergesort (68 samples, 0.42%; 0.00%)</title><rect x="1182.8" y="277" width="4.9" height="15.0" fill="rgb(255,255,255)" rx="2" ry="2" />
<text  x="1185.75" y="287.5" ></text>
</g>
<g >
<title>merge (8 samples, 0.05%; 0.00%)</title><rect x="1183.8" y="101" width="0.5" height="15.0" fill="rgb(255,255,255)" rx="2" ry="2" />
<text  x="1186.77" y="111.5" ></text>
</g>
<g >
<title>all (16,280 samples, 100%)</title><rect x="10.0" y="421" width="1180.0" height="15.0" fill="rgb(255,255,255)" rx="2" ry="2" />
<text  x="13.00" y="431.5" ></text>
</g>
<g >
<title>mergesort (68 samples, 0.42%; 0.00%)</title><rect x="1182.8" y="325" width="4.9" height="15.0" fill="rgb(255,255,255)" rx="2" ry="2" />
<text  x="1185.75" y="335.5" ></text>
</g>
<g >
<title>[unknown] (10 samples, 0.06%; 0.00%)</title><rect x="1180.7" y="357" width="0.7" height="15.0" fill="rgb(255,255,255)" rx="2" ry="2" />
<text  x="1183.72" y="367.5" ></text>
</g>
<g >
<title>[perf-7234.map] (4 samples, 0.02%; +0.02%)</title><rect x="1185.6" y="85" width="0.3" height="15.0" fill="rgb(255,209,209)" rx="2" ry="2" />
<text  x="1188.58" y="95.5" ></text>
</g>
<g >
<title>[perf-7234.map] (2 samples, 0.01%; +0.01%)</title><rect x="1185.3" y="37" width="0.1" height="15.0" fill="rgb(255,209,209)" rx="2" ry="2" />
<text  x="1188.29" y="47.5" ></text>
</g>
<g >
<title>[perf-7234.map] (1,618 samples, 9.94%; +9.94%)</title><rect x="703.4" y="341" width="117.2" height="15.0" fill="rgb(255,171,171)" rx="2" ry="2" />
<text  x="706.36" y="351.5" >[perf-7234.map]</text>
</g>
<g >
<title>[unknown] (2 samples, 0.01%; 0.00%)</title><rect x="1187.2" y="117" width="0.1" height="15.0" fill="rgb(255,255,255)" rx="2" ry="2" />
<text  x="1190.17" y="127.5" ></text>
</g>
<g >
<title>helper_lookup_tb_ptr (5 samples, 0.03%; +0.03%)</title><rect x="1179.1" y="341" width="0.3" height="15.0" fill="rgb(255,209,209)" rx="2" ry="2" />
<text  x="1182.06" y="351.5" ></text>
</g>
<g >
<title>[perf-7234.map] (6 samples, 0.04%; +0.04%)</title><rect x="1184.5" y="53" width="0.4" height="15.0" fill="rgb(255,209,209)" rx="2" ry="2" />
<text  x="1187.49" y="63.5" ></text>
</g>
<g >
<title>[unknown] (6 samples, 0.04%; 0.00%)</title><rect x="1185.1" y="69" width="0.5" height="15.0" fill="rgb(255,255,255)" rx="2" ry="2" />
<text  x="1188.14" y="79.5" ></text>
</g>
<g >
<title>non-virtual thunk to std::basic_fstream&lt;char, std::char_traits&lt;char&gt; &gt;::~basic_fstream (23 samples, 0.14%; 0.00%)</title><rect x="1175.7" y="373" width="1.7" height="15.0" fill="rgb(255,255,255)" rx="2" ry="2" />
<text  x="1178.72" y="383.5" ></text>
</g>
<g >
<title>__libc_start_main (68 samples, 0.42%; 0.00%)</title><rect x="1182.8" y="389" width="4.9" height="15.0" fill="rgb(255,255,255)" rx="2" ry="2" />
<text  x="1185.75" y="399.5" ></text>
</g>
</g>
</svg>
